<svg xmlns="http://www.w3.org/2000/svg" viewBox="0 0 1200 300"><defs><style>.cls-1{fill:none;}.cls-2{fill:#6c4bff;}</style></defs><g id="waku"><line class="cls-1" x1="1200" x2="1200" y2="300"/><line class="cls-1" y1="300"/></g><g id="手書き体"><g id="BASE"><path class="cls-2" d="M265.64648,248.65625c0,9.34277,1.94629,17.12793,1.94629,26.08105,0,7.00684-2.72509,7.39649-8.1748,7.39649h-1.55713c-14.01367,0-13.23486-27.63867-12.45654-39.31641,3.89258-62.67187,7.396-126.51172,12.8457-189.18359,0-5.06055.38965-16.73877,2.7251-21.02051,1.55713-1.94629,5.06054-3.11426,8.95312-3.11426a15.951,15.951,0,0,1,4.28174.38965c3.89307.77832,3.89307,7.396,7.39649,8.56348,15.95947,6.22851,33.86621,24.13476,33.86621,49.82617,0,45.54443-36.98047,70.84668-38.14844,74.73926-.77832,3.5039,19.46338,36.98047,22.57764,44.37695,3.50341,7.78516,15.5708,28.416,22.96679,38.92676,2.72461,3.50293-.77881,4.6709-5.4497,4.6709-3.89307,0-8.95313-.77832-10.89942-2.33594-13.62451-9.3418-36.98047-57.61133-37.75928-57.61133C267.59277,208.56152,265.64648,232.30762,265.64648,248.65625ZM295.61963,88.27832c0-13.23486-6.228-26.47021-16.73828-29.97363-3.11426,26.85986-4.28174,53.32959-6.61768,79.7998C285.88818,128.37305,295.61963,105.40625,295.61963,88.27832Z"/><path class="cls-2" d="M359.45654,146.2793c12.06739,0,24.13477-2.7251,37.36963-3.11426,6.61768,0,7.78516.38916,7.78516,7.396,0,2.33544-1.16748,5.83935-3.89258,7.00732-12.06738,4.6709-24.13428,5.83887-36.20166,10.12012-3.50342,1.168-7.00684,1.94726-7.396,5.06054-1.168,13.23536-2.33593,30.36328-2.33593,43.59864,0,5.06054-.77832,32.30859,2.33593,35.0332,6.61719,0,33.08741-10.12012,39.70508-10.12012,5.06055,0,10.89942.38867,10.89942,6.61719,0,3.50293-3.11426,10.12109-7.396,10.12109C390.59814,261.502,362.96,275.127,354.396,275.127c-19.46338,0-21.40967-30.36328-21.40967-44.377,0-61.89355,9.34228-122.22949,16.73877-182.95508.38916-3.50342,5.4497-6.61767,8.56347-6.61767,7.39649,0,15.96,2.33545,24.91309,2.33545s17.90625-1.168,27.249-1.168c4.28174,0,6.61719,4.67138,6.61719,9.34277,0,10.51025-24.91308,13.23486-35.03369,13.23486-3.50342,0-7.78564-.38916-11.67822-.38916C365.68506,91.00342,362.18164,119.80908,359.45654,146.2793Z"/><path class="cls-2" d="M443.53418,260.334c21.02051-.77832,28.4165-35.42285,28.02734-52.16113-1.168-40.48437-40.873-50.21582-42.81933-101.20947-.38965-25.30225,32.30908-71.23584,58.77929-72.01465,8.17432,0,17.51661,6.61768,17.90625,15.18164a7.48427,7.48427,0,0,1-7.78564,7.396,10.14618,10.14618,0,0,1-4.28174-1.168c-24.13476.77881-45.93359,33.477-45.15478,55.66553.77832,31.14111,40.87255,44.37646,42.81933,97.31689.38916,25.30176-17.12793,69.28906-45.54443,70.457a20.47891,20.47891,0,0,1-20.2417-15.57031c1.94629-3.89356,4.6709-8.17481,8.17432-8.56445C436.13818,259.94531,440.41992,260.334,443.53418,260.334Z"/><path class="cls-2" d="M590.67285,75.04346c7.39649,23.356,8.56445,53.32959,6.22852,82.91357-2.72461,32.30957-5.83887,72.01465-19.85254,101.59863-5.06055,8.95313-12.45606,18.2959-25.30176,17.90625-7.00732-.77832-14.79248-2.335-18.68506-8.56347-7.78564-7.78516-12.06738-19.85254-13.23535-30.36328-5.06055-28.416-1.55713-60.33594,2.33545-89.92041,5.06055-38.14795,14.40332-75.12842,24.52393-112.88721,1.94628-7.00684,6.228-11.28906,11.28857-11.28906,2.72559,0,5.83887,1.168,8.95312,3.89306,3.89258,3.89258,5.4502,5.44971,2.72559,11.28858-1.55762,3.11426-1.94629,4.28174-3.50391,7.396C578.60645,54.41211,586.78027,59.86182,590.67285,75.04346ZM554.47168,258.3877c11.28809-15.57032,19.85254-64.22852,22.18848-103.9336,1.167-22.9668,2.72461-81.35693-14.793-90.31006a646.9269,646.9269,0,0,0-18.29541,89.14209c-3.11377,26.46973-9.73145,93.42383,6.61767,107.4375C551.74707,260.72363,553.69336,260.334,554.47168,258.3877Z"/><path class="cls-2" d="M681.75977,247.09961a1.42751,1.42751,0,0,1,1.167-.38965c2.72558,0,4.28222,3.89258,4.28222,7.78516,0,9.34277-32.30859,16.73926-40.48339,21.41015-1.168.77832-11.67871,4.6709-13.23536,4.6709-8.56347,0-17.5166-11.67773-17.12793-19.07422,1.168-14.792,1.94629-31.53027,2.33594-46.32226,2.72461-55.665,6.22852-104.71289,10.89942-160.37793a17.50181,17.50181,0,0,0-1.55664-8.95362c0-6.228,3.89257-7.396,8.95312-7.396,5.05957,0,16.34863,2.33594,16.34863,9.34277,0,.38916-.77832,1.55664-.77832,2.72461-8.95312,77.07471-14.01367,137.02246-15.18164,207.86817A217.75428,217.75428,0,0,0,681.75977,247.09961Z"/><path class="cls-2" d="M718.3457,61.02979c-7.78515.38916-14.01367-5.44971-14.40234-13.62452,0-5.83886,1.167-11.28857,7.78516-11.28857,2.335,0,5.44921,1.168,7.78515,1.168,5.83887.38916,11.28906.77832,17.12793.77832l11.67774-.77832c3.89257,0,7.78515-.38965,12.06738-.38965a155.37953,155.37953,0,0,1,23.74512,1.55713c5.06054.38965,5.83886,3.11426,7.39648,6.61767.38867,3.89258-1.94629,7.396-5.06055,9.34229l-27.249.77881c-2.72461,13.23486-4.6709,25.30224-6.22852,38.148-7.00683,52.16162-12.45605,105.49121-10.89941,158.042,0,3.50391.38965,7.39648,1.94629,10.12109a95.763,95.763,0,0,1,.7793,10.1211c0,5.83886-5.06055,8.1748-10.1211,8.1748-12.06738,0-12.06738-12.8457-12.06738-22.57715-1.94629-59.16894,5.06055-118.72656,11.67773-177.50586.38965-7.78564,1.55762-14.79248,1.168-22.18847C728.4668,58.69434,725.74219,61.02979,718.3457,61.02979Z"/><path class="cls-2" d="M807.09766,141.99707c1.168-21.02,1.168-63.83936,2.72461-83.69238,1.168-9.34229-2.72461-20.2417,10.12109-22.188,3.89258-.38916,14.01367,5.44971,14.40234,9.73144.38965,2.33594-.77832,4.67139-1.167,6.61768-6.22851,45.54443-5.45019,73.96094-5.83887,113.27637-.38964,23.35644-.77929,47.49121-1.55761,70.84668-.38965,10.51074.77832,40.873-10.50977,40.873-9.34277,0-19.07422-10.12109-13.23535-10.12109C804.37305,246.71,805.54,185.98438,807.09766,141.99707Z"/><path class="cls-2" d="M925.041,75.04346c7.39648,23.356,8.56347,53.32959,6.22851,82.91357-2.72558,32.30957-5.83887,72.01465-19.85254,101.59863-5.06054,8.95313-12.457,18.2959-25.30273,17.90625-7.00684-.77832-14.792-2.335-18.68457-8.56347-7.78516-7.78516-12.06739-19.85254-13.23535-30.36328-5.06055-28.416-1.55664-60.33594,2.33593-89.92041,5.06055-38.14795,14.40235-75.12842,24.52344-112.88721C883,28.7207,887.28223,24.43848,892.34277,24.43848c2.72461,0,5.83887,1.168,8.95313,3.89306,3.89258,3.89258,5.44922,5.44971,2.72461,11.28858-1.55664,3.11426-1.94629,4.28174-3.50293,7.396C912.97363,54.41211,921.14844,59.86182,925.041,75.04346ZM888.83887,258.3877c11.28906-15.57032,19.85254-64.22852,22.18847-103.9336,1.168-22.9668,2.72461-81.35693-14.792-90.31006a646.78665,646.78665,0,0,0-18.2959,89.14209c-3.11425,26.46973-9.73144,93.42383,6.61817,107.4375C886.11426,260.72363,888.06055,260.334,888.83887,258.3877Z"/></g></g></svg>